<?xml version="1.0" encoding="UTF-8" standalone="no"?>
<!-- Created with Inkscape (http://www.inkscape.org/) -->

<svg
   xmlns:dc="http://purl.org/dc/elements/1.1/"
   xmlns:cc="http://creativecommons.org/ns#"
   xmlns:rdf="http://www.w3.org/1999/02/22-rdf-syntax-ns#"
   xmlns:svg="http://www.w3.org/2000/svg"
   xmlns="http://www.w3.org/2000/svg"
   xmlns:sodipodi="http://sodipodi.sourceforge.net/DTD/sodipodi-0.dtd"
   xmlns:inkscape="http://www.inkscape.org/namespaces/inkscape"
   width="32"
   height="32"
   viewBox="0 0 8.4666665 8.4666669"
   version="1.1"
   id="svg8"
   inkscape:version="0.92.0 r15299"
   sodipodi:docname="simple-icon.svg">
  <defs
     id="defs2" />
  <sodipodi:namedview
     id="base"
     pagecolor="#1d1d0e"
     bordercolor="#666666"
     borderopacity="1.0"
     inkscape:pageopacity="0"
     inkscape:pageshadow="2"
     inkscape:zoom="11.2"
     inkscape:cx="6.3546751"
     inkscape:cy="13.763425"
     inkscape:document-units="mm"
     inkscape:current-layer="layer1"
     showgrid="false"
     units="px"
     inkscape:window-width="1920"
     inkscape:window-height="1017"
     inkscape:window-x="-8"
     inkscape:window-y="167"
     inkscape:window-maximized="1" />
  <metadata
     id="metadata5">
    <rdf:RDF>
      <cc:Work
         rdf:about="">
        <dc:format>image/svg+xml</dc:format>
        <dc:type
           rdf:resource="http://purl.org/dc/dcmitype/StillImage" />
        <dc:title></dc:title>
      </cc:Work>
    </rdf:RDF>
  </metadata>
  <g
     inkscape:groupmode="layer"
     id="layer2"
     inkscape:label="Background">
    <rect
       style="fill:#ffffff;fill-opacity:0.78431373;stroke-width:0.26458332"
       id="rect21"
       width="7.9375"
       height="7.9375"
       x="0.26458332"
       y="0.26458332"
       rx="1.3229166" />
  </g>
  <g
     inkscape:label="Laag 1"
     inkscape:groupmode="layer"
     id="layer1"
     transform="translate(0,-288.53332)">
    <path
       id="path10"
       d="m 5.415236,292.20932 q 0,-0.76113 -0.5410231,-1.30214 -0.5410231,-0.54103 -1.3021569,-0.54103 -0.7611352,0 -1.3021568,0.54103 -0.5410231,0.54101 -0.5410231,1.30214 0,0.76114 0.5410231,1.30217 0.5410216,0.54102 1.3021568,0.54102 0.7611338,0 1.3021569,-0.54102 0.5410231,-0.54103 0.5410231,-1.30217 z m 2.1064917,3.42305 q 0,0.21394 -0.156342,0.37029 -0.1563405,0.15633 -0.3702816,0.15633 -0.2221682,0 -0.3702817,-0.15633 l -1.4111842,-1.40707 q -0.7364498,0.51016 -1.6415822,0.51016 -0.5883363,0 -1.1252444,-0.22834 -0.5369096,-0.22833 -0.9257042,-0.61713 -0.3887961,-0.38879 -0.61713676,-0.9257 -0.2283406,-0.53691 -0.2283406,-1.12526 0,-0.58833 0.2283406,-1.12523 0.22834066,-0.53691 0.61713676,-0.92571 0.3887946,-0.38879 0.9257042,-0.61714 0.5369081,-0.22833 1.1252444,-0.22833 0.5883363,0 1.1252445,0.22833 0.5369081,0.22835 0.9257042,0.61714 0.388796,0.3888 0.6171366,0.92571 0.2283405,0.5369 0.2283405,1.12523 0,0.90515 -0.5101667,1.64159 l 1.4111856,1.41119 q 0.152227,0.15222 0.152227,0.37027 z"
       inkscape:connector-curvature="0"
       style="stroke-width:0.00411424" />
  </g>
</svg>
